# xmcd CD database file
#
# Track frame offsets:
#	150
#	40942
#	82203
#	120405
#	166027
#	209016
#	254248
#	297202
#
# Disc length: 4567 seconds
#
# Revision: 0
# Processed by: cddbd v1.5.2PL0 Copyright (c) Steve Scherf et al.
# Submitted via: CDex 1.51
#
DISCID=7611d508
DTITLE=Orginal Nature Sounds - Ozeane and Meere Der Welt- Exotic Places
DYEAR=2009
DGENRE=New Age
TTITLE0=Hyams Beach - Australien
TTITLE1=Ocracoke Island - USA
TTITLE2=Chowpatty Beach - Mumbai ( India )
TTITLE3=Carmel Beach - Carmel by the Sea ( USA )
TTITLE4=Buzios Beach - Brasilien
TTITLE5=Apella Beach - Karpathos ( Griechenland )
TTITLE6=Isle aux Cerf - Mauritius
TTITLE7=Pwani Beach - Sansibar ( Tansania )
EXTD=YEAR: 2009
EXTT0=
EXTT1=
EXTT2=
EXTT3=
EXTT4=
EXTT5=
EXTT6=
EXTT7=
PLAYORDER=
